<mxfile host="app.diagrams.net" modified="2022-08-20T17:04:58.536Z" agent="5.0 (Windows)" etag="4ugXaDcfrucQvX3kn0GA" version="20.2.5" type="github">
  <diagram id="mYPG_qAB2JkAkDNk--a2" name="Pagina-1">
    <mxGraphModel dx="1052" dy="563" grid="1" gridSize="10" guides="1" tooltips="1" connect="1" arrows="1" fold="1" page="1" pageScale="1" pageWidth="827" pageHeight="1169" math="0" shadow="0">
      <root>
        <mxCell id="0" />
        <mxCell id="1" parent="0" />
        <mxCell id="plow9R5SB9hflpFcKOpZ-12" value="" style="strokeWidth=2;html=1;shape=mxgraph.flowchart.annotation_2;align=left;labelPosition=right;pointerEvents=1;fillStyle=auto;fontFamily=Verdana;fontSize=10;fillColor=#87CEFA;gradientColor=none;rotation=90;opacity=50;" vertex="1" parent="1">
          <mxGeometry x="-33.09" y="311.6" width="195.1" height="116.03" as="geometry" />
        </mxCell>
        <mxCell id="plow9R5SB9hflpFcKOpZ-7" value="" style="strokeWidth=2;html=1;shape=mxgraph.flowchart.annotation_2;align=left;labelPosition=right;pointerEvents=1;fillStyle=auto;fontFamily=Verdana;fontSize=10;fillColor=#87CEFA;gradientColor=none;rotation=-90;" vertex="1" parent="1">
          <mxGeometry x="615.2" y="660.12" width="89.38" height="259.15" as="geometry" />
        </mxCell>
        <mxCell id="IXTUPJLgbKb1r88hFRmQ-5" value="" style="strokeWidth=2;html=1;shape=mxgraph.flowchart.annotation_2;align=left;labelPosition=right;pointerEvents=1;fillStyle=auto;fillColor=#87CEFA;rotation=-90;fontFamily=Verdana;" parent="1" vertex="1">
          <mxGeometry x="382.29" y="-20.54" width="77.19" height="278.28" as="geometry" />
        </mxCell>
        <mxCell id="IXTUPJLgbKb1r88hFRmQ-2" value="&lt;div style=&quot;font-size: 10px;&quot;&gt;&lt;font style=&quot;font-size: 10px;&quot; face=&quot;Verdana&quot;&gt;♀ &lt;b&gt;Jhomun&lt;/b&gt;&lt;/font&gt;&lt;/div&gt;&lt;div style=&quot;font-size: 10px;&quot;&gt;&lt;font style=&quot;font-size: 10px;&quot; face=&quot;Verdana&quot;&gt;&lt;b&gt;&lt;font style=&quot;font-size: 10px;&quot;&gt;Jossodee&lt;/font&gt;&lt;/b&gt;&lt;/font&gt;&lt;/div&gt;&lt;div style=&quot;font-size: 10px;&quot;&gt;&lt;font style=&quot;font-size: 10px;&quot; face=&quot;Verdana&quot;&gt;(1859 - † 20/06/1927 te Saramacca)&lt;/font&gt;&lt;/div&gt;&lt;div style=&quot;font-size: 10px;&quot;&gt;&lt;font style=&quot;font-size: 10px;&quot; face=&quot;Verdana&quot;&gt;&lt;i&gt;J/307&lt;/i&gt;&lt;/font&gt;&lt;/div&gt;" style="rounded=1;whiteSpace=wrap;html=1;fillColor=#FFC0CB;strokeColor=#FF1493;fillStyle=auto;fontFamily=Verdana;" parent="1" vertex="1">
          <mxGeometry x="200" y="10" width="150" height="70" as="geometry" />
        </mxCell>
        <mxCell id="IXTUPJLgbKb1r88hFRmQ-3" value="&lt;div&gt;&lt;font style=&quot;font-size: 10px;&quot;&gt;♂ &lt;b&gt;Toorun Sing&lt;/b&gt;&lt;/font&gt;&lt;/div&gt;&lt;div&gt;&lt;font style=&quot;font-size: 10px;&quot;&gt;&lt;b&gt;Dwarka Sing&lt;/b&gt;&lt;br&gt;&lt;/font&gt;&lt;/div&gt;&lt;div&gt;&lt;font style=&quot;font-size: 10px;&quot;&gt;(1846 - &lt;b&gt;† &lt;/b&gt;21/04/1927 te Saramacca )&lt;/font&gt;&lt;/div&gt;&lt;div&gt;&lt;font style=&quot;font-size: 10px;&quot;&gt;&lt;i&gt;&amp;nbsp;J/300 &lt;/i&gt;&lt;br&gt;&lt;/font&gt;&lt;/div&gt;" style="rounded=1;whiteSpace=wrap;html=1;fillStyle=auto;strokeColor=#00BFFF;fillColor=#87CEFA;gradientColor=none;fontFamily=Verdana;" parent="1" vertex="1">
          <mxGeometry x="490" y="10" width="150" height="70" as="geometry" />
        </mxCell>
        <UserObject label="&lt;span lang=&quot;EN-US&quot;&gt;⚭ 09/08/1900 &lt;/span&gt;&lt;span lang=&quot;EN-US&quot;&gt;➝ achternaam &lt;i&gt;Dwarkasing&lt;/i&gt;&lt;br&gt;&lt;/span&gt;" placeholders="1" name="Variable" id="IXTUPJLgbKb1r88hFRmQ-12">
          <mxCell style="text;html=1;strokeColor=none;fillColor=none;align=center;verticalAlign=middle;whiteSpace=wrap;overflow=hidden;fillStyle=auto;fontFamily=Verdana;fontSize=10;" parent="1" vertex="1">
            <mxGeometry x="330.94" y="80" width="179.38" height="50" as="geometry" />
          </mxCell>
        </UserObject>
        <mxCell id="IXTUPJLgbKb1r88hFRmQ-13" value="" style="line;strokeWidth=2;html=1;fillStyle=auto;fontFamily=Verdana;fontSize=10;fillColor=#87CEFA;gradientColor=none;" parent="1" vertex="1">
          <mxGeometry x="40" y="153" width="760" height="10" as="geometry" />
        </mxCell>
        <mxCell id="IXTUPJLgbKb1r88hFRmQ-14" value="" style="line;strokeWidth=2;direction=south;html=1;fillStyle=auto;fontFamily=Verdana;fontSize=10;fillColor=#87CEFA;gradientColor=none;" parent="1" vertex="1">
          <mxGeometry x="794" y="159" width="10" height="41" as="geometry" />
        </mxCell>
        <mxCell id="IXTUPJLgbKb1r88hFRmQ-15" value="" style="line;strokeWidth=2;direction=south;html=1;fillStyle=auto;fontFamily=Verdana;fontSize=10;fillColor=#87CEFA;gradientColor=none;" parent="1" vertex="1">
          <mxGeometry x="36" y="158" width="10" height="41" as="geometry" />
        </mxCell>
        <mxCell id="IXTUPJLgbKb1r88hFRmQ-16" value="&lt;div&gt;&lt;font style=&quot;font-size: 10px;&quot;&gt;♀ &lt;b&gt;Dhunowateea/ Dumotea&lt;br&gt;&lt;/b&gt;&lt;/font&gt;&lt;/div&gt;&lt;div style=&quot;font-size: 10px;&quot;&gt;&lt;font style=&quot;font-size: 10px;&quot; size=&quot;3&quot;&gt;(04/10/1883 - † 14/10/1929 te Saramacca )&lt;/font&gt;&lt;font style=&quot;font-size: 10px;&quot;&gt;&lt;i&gt; &lt;/i&gt;&lt;br&gt;&lt;/font&gt;&lt;/div&gt;" style="rounded=1;whiteSpace=wrap;html=1;fillColor=#FFC0CB;strokeColor=#FF1493;fillStyle=auto;fontFamily=Verdana;fontSize=10;" parent="1" vertex="1">
          <mxGeometry y="199" width="150" height="70" as="geometry" />
        </mxCell>
        <mxCell id="IXTUPJLgbKb1r88hFRmQ-17" value="" style="line;strokeWidth=2;direction=south;html=1;fillStyle=auto;fontFamily=Verdana;fontSize=10;fillColor=#87CEFA;gradientColor=none;" parent="1" vertex="1">
          <mxGeometry x="685" y="158" width="10" height="522" as="geometry" />
        </mxCell>
        <mxCell id="IXTUPJLgbKb1r88hFRmQ-6" value="&lt;div&gt;&lt;font style=&quot;font-size: 10px;&quot;&gt;♀ &lt;b&gt;Sophie&lt;/b&gt;&lt;/font&gt;&lt;/div&gt;&lt;div&gt;&lt;font style=&quot;font-size: 10px;&quot; size=&quot;3&quot;&gt;(28/04/1895 - &lt;br&gt;&lt;/font&gt;&lt;/div&gt;&lt;div&gt;&lt;font style=&quot;font-size: 10px;&quot; size=&quot;3&quot;&gt;&lt;b&gt;†&lt;/b&gt; 12/01/1909 te Groningen)&lt;/font&gt;&lt;font size=&quot;3&quot;&gt;&lt;i&gt;&lt;br&gt;&lt;/i&gt;&lt;/font&gt;&lt;/div&gt;" style="rounded=1;whiteSpace=wrap;html=1;fillColor=#FFC0CB;strokeColor=#FF1493;fillStyle=auto;fontFamily=Verdana;" parent="1" vertex="1">
          <mxGeometry x="677" y="200" width="150" height="70" as="geometry" />
        </mxCell>
        <mxCell id="IXTUPJLgbKb1r88hFRmQ-19" value="&lt;div&gt;&lt;font style=&quot;font-size: 10px;&quot;&gt;♀ &lt;b&gt;Maria&lt;/b&gt;&lt;/font&gt;&lt;/div&gt;&lt;div style=&quot;font-size: 10px;&quot;&gt;&lt;font style=&quot;font-size: 10px;&quot; size=&quot;3&quot;&gt;(26/10/1890 - † 1979? te Saramacca)&lt;/font&gt;&lt;font style=&quot;font-size: 10px;&quot;&gt;&lt;i&gt; &lt;/i&gt;&lt;br&gt;&lt;/font&gt;&lt;/div&gt;" style="rounded=1;whiteSpace=wrap;html=1;fillColor=#FFC0CB;strokeColor=#FF1493;fillStyle=auto;fontFamily=Verdana;fontSize=10;" parent="1" vertex="1">
          <mxGeometry x="677" y="677" width="150" height="70" as="geometry" />
        </mxCell>
        <mxCell id="plow9R5SB9hflpFcKOpZ-1" value="&lt;div&gt;&lt;font style=&quot;font-size: 10px;&quot;&gt;♀ &lt;b&gt;..&lt;/b&gt;&lt;/font&gt;&lt;/div&gt;&lt;div&gt;&lt;font style=&quot;font-size: 10px;&quot; size=&quot;3&quot;&gt;( - &lt;b&gt;†&lt;/b&gt;&amp;nbsp; )&lt;/font&gt;&lt;font size=&quot;3&quot;&gt;&lt;i&gt;&lt;br&gt;&lt;/i&gt;&lt;/font&gt;&lt;/div&gt;&lt;div style=&quot;font-size: 10px;&quot;&gt;&lt;font style=&quot;font-size: 10px;&quot;&gt;&lt;i&gt;&amp;nbsp;/ &lt;/i&gt;&lt;br&gt;&lt;/font&gt;&lt;/div&gt;" style="rounded=1;whiteSpace=wrap;html=1;fillColor=#FFC0CB;strokeColor=#FF1493;fillStyle=auto;opacity=50;fontFamily=Verdana;fontSize=10;" vertex="1" parent="1">
          <mxGeometry x="200" y="700" width="150" height="70" as="geometry" />
        </mxCell>
        <mxCell id="plow9R5SB9hflpFcKOpZ-3" value="&lt;div&gt;&lt;font style=&quot;font-size: 10px;&quot; face=&quot;Verdana&quot;&gt;♂ &lt;b&gt;Thanu&lt;/b&gt;&lt;/font&gt;&lt;/div&gt;&lt;div&gt;&lt;font style=&quot;font-size: 10px;&quot; face=&quot;Verdana&quot;&gt;&lt;b&gt;Kathu&lt;/b&gt;&lt;br&gt;&lt;/font&gt;&lt;/div&gt;&lt;div&gt;&lt;font style=&quot;font-size: 10px;&quot; face=&quot;Verdana&quot;&gt;(1884 - &lt;b&gt;† &lt;/b&gt;1964?)&lt;/font&gt;&lt;/div&gt;&lt;div&gt;&lt;span lang=&quot;EN-US&quot;&gt;➝ 21/07/1932 &lt;i&gt;Gulab Kathusing&lt;/i&gt;&lt;br&gt;&lt;/span&gt;&lt;/div&gt;&lt;div&gt;&lt;font style=&quot;font-size: 10px;&quot; face=&quot;Verdana&quot;&gt;&lt;i&gt;&amp;nbsp;LL/838 &lt;/i&gt;&lt;br&gt;&lt;/font&gt;&lt;/div&gt;" style="rounded=1;whiteSpace=wrap;html=1;fillStyle=auto;strokeColor=#00BFFF;fillColor=#87CEFA;gradientColor=none;fontFamily=Verdana;fontSize=10;" vertex="1" parent="1">
          <mxGeometry x="490" y="677" width="150" height="70" as="geometry" />
        </mxCell>
        <mxCell id="plow9R5SB9hflpFcKOpZ-4" value="" style="line;strokeWidth=2;direction=south;html=1;fillStyle=auto;fontFamily=Verdana;fontSize=10;fillColor=#87CEFA;gradientColor=none;" vertex="1" parent="1">
          <mxGeometry x="155" y="159" width="10" height="121" as="geometry" />
        </mxCell>
        <mxCell id="plow9R5SB9hflpFcKOpZ-6" value="&lt;div&gt;&lt;font style=&quot;font-size: 10px;&quot; face=&quot;Verdana&quot;&gt;♂ &lt;b&gt;Mohabeer/ Mahabier&lt;/b&gt;&lt;br&gt;&lt;/font&gt;&lt;/div&gt;&lt;div&gt;&lt;font style=&quot;font-size: 10px;&quot; face=&quot;Verdana&quot;&gt;(09/09/1885 - &lt;b&gt;†&lt;/b&gt; ?)&lt;/font&gt;&lt;/div&gt;&lt;div&gt;&lt;font face=&quot;Verdana&quot;&gt;&lt;span lang=&quot;EN-US&quot;&gt;08/10/1930 &lt;/span&gt;&lt;i&gt;&lt;span lang=&quot;EN-US&quot;&gt;➝ &lt;/span&gt;&lt;/i&gt;&lt;span lang=&quot;EN-US&quot;&gt;Mohabeer&lt;/span&gt;&lt;i&gt;&lt;span lang=&quot;EN-US&quot;&gt; Dwarka Sing&lt;br&gt;&lt;/span&gt;&lt;/i&gt;&lt;/font&gt;&lt;/div&gt;" style="rounded=1;whiteSpace=wrap;html=1;fillStyle=auto;strokeColor=#00BFFF;fillColor=#87CEFA;gradientColor=none;fontFamily=Verdana;fontSize=10;" vertex="1" parent="1">
          <mxGeometry x="138.01" y="280" width="150" height="70" as="geometry" />
        </mxCell>
        <UserObject label="&lt;span lang=&quot;EN-US&quot;&gt;⚭ 15/12/1927 &lt;/span&gt;&lt;span lang=&quot;EN-US&quot;&gt;➝ kinderen gewettigd&lt;br&gt;&lt;/span&gt;" placeholders="1" name="Variable" id="plow9R5SB9hflpFcKOpZ-8">
          <mxCell style="text;html=1;strokeColor=none;fillColor=none;align=center;verticalAlign=middle;whiteSpace=wrap;overflow=hidden;fillStyle=auto;fontFamily=Verdana;fontSize=10;opacity=50;" vertex="1" parent="1">
            <mxGeometry x="570.2" y="747" width="179.38" height="50" as="geometry" />
          </mxCell>
        </UserObject>
        <mxCell id="plow9R5SB9hflpFcKOpZ-10" value="" style="line;strokeWidth=2;html=1;fillStyle=auto;fontFamily=Verdana;fontSize=10;fillColor=#87CEFA;gradientColor=none;" vertex="1" parent="1">
          <mxGeometry x="20" y="832" width="790" height="10" as="geometry" />
        </mxCell>
        <mxCell id="plow9R5SB9hflpFcKOpZ-16" value="" style="line;strokeWidth=2;direction=south;html=1;fillStyle=auto;fontFamily=Verdana;fontSize=10;fillColor=#87CEFA;gradientColor=none;" vertex="1" parent="1">
          <mxGeometry x="240" y="350" width="10" height="120" as="geometry" />
        </mxCell>
        <UserObject label="&lt;i&gt;&lt;span lang=&quot;EN-US&quot;&gt;⚭&lt;/span&gt;&lt;/i&gt;&lt;span lang=&quot;EN-US&quot;&gt; 08/04/1914 met &lt;/span&gt;&lt;i&gt;&lt;span lang=&quot;EN-US&quot;&gt;&lt;font color=&quot;#00BFFF&quot;&gt;Bhairosing &lt;/font&gt;&lt;/span&gt;&lt;/i&gt;&lt;span lang=&quot;EN-US&quot;&gt;(1527/R)&lt;/span&gt;&lt;i&gt;&lt;span lang=&quot;EN-US&quot;&gt;&lt;br&gt;&lt;/span&gt;&lt;/i&gt;" placeholders="1" name="Variable" id="plow9R5SB9hflpFcKOpZ-17">
          <mxCell style="text;html=1;strokeColor=none;fillColor=none;align=center;verticalAlign=middle;whiteSpace=wrap;overflow=hidden;fillStyle=auto;fontFamily=Verdana;fontSize=10;opacity=50;rotation=-90;" vertex="1" parent="1">
            <mxGeometry x="-9.64" y="286" width="101.29" height="70.36" as="geometry" />
          </mxCell>
        </UserObject>
        <UserObject label="&lt;span lang=&quot;EN-US&quot;&gt;⚭ 03/02/1915 gehuwd met &lt;font color=&quot;#FF1493&quot;&gt;&lt;i&gt;Charlotte Cameron/Silent &lt;/i&gt;&lt;/font&gt;wed v. 1503/R&lt;/span&gt;&lt;span lang=&quot;EN-US&quot;&gt; &lt;br&gt;&lt;/span&gt;" placeholders="1" name="Variable" id="plow9R5SB9hflpFcKOpZ-18">
          <mxCell style="text;html=1;strokeColor=none;fillColor=none;align=center;verticalAlign=middle;whiteSpace=wrap;overflow=hidden;fillStyle=auto;fontFamily=Verdana;fontSize=10;opacity=50;rotation=-90;" vertex="1" parent="1">
            <mxGeometry x="210.31" y="385" width="129.38" height="50" as="geometry" />
          </mxCell>
        </UserObject>
        <mxCell id="plow9R5SB9hflpFcKOpZ-19" value="&lt;div&gt;&lt;font style=&quot;font-size: 10px;&quot; face=&quot;Verdana&quot;&gt;♂ &lt;b&gt;Arthur Marius&lt;/b&gt;&lt;br&gt;&lt;/font&gt;&lt;/div&gt;&lt;div&gt;&lt;font style=&quot;font-size: 10px;&quot; face=&quot;Verdana&quot;&gt;(25/08/1925 - &lt;b&gt;†&lt;/b&gt; ??) &lt;br&gt;&lt;/font&gt;&lt;/div&gt;" style="rounded=1;whiteSpace=wrap;html=1;fillStyle=auto;strokeColor=#00BFFF;fillColor=#87CEFA;gradientColor=none;opacity=50;fontFamily=Verdana;fontSize=10;" vertex="1" parent="1">
          <mxGeometry x="210.31" y="470" width="110" height="50" as="geometry" />
        </mxCell>
        <mxCell id="plow9R5SB9hflpFcKOpZ-20" value="&lt;div&gt;&lt;font style=&quot;font-size: 10px;&quot; face=&quot;Verdana&quot;&gt;♂ &lt;b&gt;Sewnathsing&lt;/b&gt;&lt;br&gt;&lt;/font&gt;&lt;/div&gt;&lt;div&gt;&lt;font style=&quot;font-size: 10px;&quot; face=&quot;Verdana&quot;&gt;(21/02/1916 - &lt;b&gt;† ??&lt;/b&gt;)&lt;/font&gt;&lt;/div&gt;&lt;div&gt;&lt;span lang=&quot;EN-US&quot;&gt;28/08/1933 ➝ &lt;i&gt;Sewnath Bhairosing&lt;/i&gt;&lt;br&gt;&lt;/span&gt;&lt;/div&gt;" style="rounded=1;whiteSpace=wrap;html=1;fillStyle=auto;strokeColor=#00BFFF;fillColor=#87CEFA;gradientColor=none;fontFamily=Verdana;fontSize=10;" vertex="1" parent="1">
          <mxGeometry x="110.31" y="400" width="100" height="70" as="geometry" />
        </mxCell>
        <mxCell id="plow9R5SB9hflpFcKOpZ-21" value="&lt;div&gt;&lt;font style=&quot;font-size: 10px;&quot; color=&quot;#000000&quot;&gt;♀ &lt;b&gt;Bhagarati&lt;/b&gt;&lt;/font&gt;&lt;/div&gt;&lt;div&gt;&lt;font style=&quot;font-size: 10px;&quot; size=&quot;3&quot; color=&quot;#000000&quot;&gt;(11/11/1903 - &lt;b&gt;† ??&lt;/b&gt;)&lt;/font&gt;&lt;font size=&quot;3&quot; color=&quot;#000000&quot;&gt;&lt;i&gt;&lt;br&gt;&lt;/i&gt;&lt;/font&gt;&lt;/div&gt;" style="rounded=1;whiteSpace=wrap;html=1;fillColor=#FFC0CB;strokeColor=#FF1493;fillStyle=auto;fontFamily=Verdana;fontSize=10;fontColor=#00BFFF;" vertex="1" parent="1">
          <mxGeometry y="400" width="90" height="70" as="geometry" />
        </mxCell>
        <mxCell id="plow9R5SB9hflpFcKOpZ-22" value="" style="line;strokeWidth=2;direction=south;html=1;fillStyle=auto;fontFamily=Verdana;fontSize=10;fillColor=#87CEFA;gradientColor=none;fontColor=#000000;" vertex="1" parent="1">
          <mxGeometry x="36" y="470" width="10" height="90" as="geometry" />
        </mxCell>
        <mxCell id="plow9R5SB9hflpFcKOpZ-23" value="" style="line;strokeWidth=2;direction=south;html=1;fillStyle=auto;fontFamily=Verdana;fontSize=10;fillColor=#87CEFA;gradientColor=none;fontColor=#000000;" vertex="1" parent="1">
          <mxGeometry x="315.31" y="158" width="10" height="42" as="geometry" />
        </mxCell>
        <mxCell id="plow9R5SB9hflpFcKOpZ-24" value="" style="line;strokeWidth=2;direction=south;html=1;fillStyle=auto;fontFamily=Verdana;fontSize=10;fillColor=#87CEFA;gradientColor=none;fontColor=#000000;" vertex="1" parent="1">
          <mxGeometry x="515.32" y="158" width="10" height="202" as="geometry" />
        </mxCell>
        <mxCell id="plow9R5SB9hflpFcKOpZ-25" value="&lt;div&gt;&lt;font style=&quot;font-size: 10px;&quot; face=&quot;Verdana&quot;&gt;♂ &lt;b&gt;Rhuggenaath&lt;/b&gt;&lt;br&gt;&lt;/font&gt;&lt;/div&gt;&lt;div&gt;&lt;font style=&quot;font-size: 10px;&quot; face=&quot;Verdana&quot;&gt;(23/05/1887 - &lt;b&gt;† &lt;/b&gt;04/11/1962)&lt;/font&gt;&lt;/div&gt;&lt;div&gt;&lt;font face=&quot;Verdana&quot;&gt;29/04/1933 &lt;/font&gt;&lt;font face=&quot;Verdana&quot;&gt;&lt;span lang=&quot;EN-US&quot;&gt;➝ &lt;/span&gt;&lt;/font&gt;&lt;span lang=&quot;EN-US&quot;&gt;&lt;i&gt;Raghoenath Dwarkasing&lt;/i&gt;&lt;/span&gt;&lt;/div&gt;" style="rounded=1;whiteSpace=wrap;html=1;fillStyle=auto;strokeColor=#00BFFF;fillColor=#87CEFA;gradientColor=none;opacity=50;fontFamily=Verdana;fontSize=10;fontColor=#000000;" vertex="1" parent="1">
          <mxGeometry x="245.31" y="200" width="150" height="70" as="geometry" />
        </mxCell>
        <mxCell id="plow9R5SB9hflpFcKOpZ-26" value="" style="line;strokeWidth=2;direction=south;html=1;fillStyle=auto;fontFamily=Verdana;fontSize=10;fillColor=#87CEFA;gradientColor=none;fontColor=#000000;" vertex="1" parent="1">
          <mxGeometry x="325.31" y="269" width="10" height="171" as="geometry" />
        </mxCell>
        <UserObject label="&lt;span lang=&quot;EN-US&quot;&gt;⚭ 28/08/1912 met &lt;font color=&quot;#FF1493&quot;&gt;&lt;i&gt;Johanna Maria Soekhrania/Sookania &lt;/i&gt;&lt;/font&gt;(28/10/1900), d/v 1165/S&lt;/span&gt;&lt;span lang=&quot;EN-US&quot;&gt; &lt;br&gt;&lt;/span&gt;" placeholders="1" name="Variable" id="plow9R5SB9hflpFcKOpZ-27">
          <mxCell style="text;html=1;strokeColor=none;fillColor=none;align=center;verticalAlign=middle;whiteSpace=wrap;overflow=hidden;fillStyle=auto;fontFamily=Verdana;fontSize=10;opacity=50;fontColor=#000000;rotation=-90;" vertex="1" parent="1">
            <mxGeometry x="280" y="321" width="159.38" height="50" as="geometry" />
          </mxCell>
        </UserObject>
        <mxCell id="plow9R5SB9hflpFcKOpZ-28" value="&lt;div&gt;&lt;font style=&quot;font-size: 10px;&quot; face=&quot;Verdana&quot;&gt;♂ ..&lt;/font&gt;&lt;/div&gt;&lt;div&gt;&lt;font style=&quot;font-size: 10px;&quot; face=&quot;Verdana&quot;&gt;( - &lt;b&gt;†&lt;/b&gt; )&lt;/font&gt;&lt;/div&gt;&lt;div&gt;&lt;font style=&quot;font-size: 10px;&quot; face=&quot;Verdana&quot;&gt;&lt;i&gt;&amp;nbsp;/ &lt;/i&gt;&lt;br&gt;&lt;/font&gt;&lt;/div&gt;" style="rounded=1;whiteSpace=wrap;html=1;fillStyle=auto;strokeColor=#00BFFF;fillColor=#87CEFA;gradientColor=none;opacity=50;fontFamily=Verdana;fontSize=10;fontColor=#FF1493;" vertex="1" parent="1">
          <mxGeometry x="410" y="390" width="150" height="70" as="geometry" />
        </mxCell>
      </root>
    </mxGraphModel>
  </diagram>
</mxfile>
